<svg width="30" height="30" viewBox="0 0 30 30" fill="none" xmlns="http://www.w3.org/2000/svg">
<g clip-path="url(#clip0_922_18496)">
<path d="M28.7503 10.0003C28.0591 10.0003 27.5003 10.5591 27.5003 11.2503V18.2328L19.2966 10.0303C17.6166 8.35031 14.8828 8.35031 13.2028 10.0303L9.98156 13.2516C9.30281 13.9303 8.19656 13.9303 7.51781 13.2516L2.13406 7.86656C1.64531 7.37781 0.855313 7.37781 0.366563 7.86656C-0.122188 8.35531 -0.122188 9.14531 0.366563 9.63406L5.75156 15.0191C7.40406 16.6716 10.0978 16.6716 11.7503 15.0191L14.9716 11.7978C15.6766 11.0928 16.8241 11.0928 17.5303 11.7978L25.7328 20.0003H18.7503C18.0591 20.0003 17.5003 20.5591 17.5003 21.2503C17.5003 21.9416 18.0591 22.5003 18.7503 22.5003H26.2503C28.3178 22.5003 30.0003 20.8178 30.0003 18.7503V11.2503C30.0003 10.5591 29.4416 10.0003 28.7503 10.0003Z" fill="#D81212"/>
</g>
<defs>
<clipPath id="clip0_922_18496">
<rect width="30" height="30" fill="white"/>
</clipPath>
</defs>
</svg>
