<svg width="30" height="30" viewBox="0 0 30 30" fill="none" xmlns="http://www.w3.org/2000/svg">
<g clip-path="url(#clip0_922_18502)">
<path d="M26.2503 7.5H18.7503C18.0591 7.5 17.5003 8.05875 17.5003 8.75C17.5003 9.44125 18.0591 10 18.7503 10H25.7328L17.5303 18.2025C16.8253 18.9075 15.6778 18.9075 14.9716 18.2025L11.7978 15.0287C10.1178 13.3487 7.38406 13.3487 5.70406 15.0287L0.366562 20.3662C-0.122188 20.855 -0.122188 21.645 0.366562 22.1338C0.610312 22.3775 0.930312 22.5 1.25031 22.5C1.57031 22.5 1.89031 22.3775 2.13406 22.1338L7.47156 16.7963C8.15531 16.1125 9.34656 16.1125 10.0303 16.7963L13.2041 19.97C14.8841 21.65 17.6178 21.65 19.2978 19.97L27.5016 11.7675V18.75C27.5016 19.4412 28.0603 20 28.7516 20C29.4428 20 30.0016 19.4412 30.0016 18.75V11.25C30.0016 9.1825 28.3178 7.5 26.2503 7.5Z" fill="#12B643"/>
</g>
<defs>
<clipPath id="clip0_922_18502">
<rect width="30" height="30" fill="white"/>
</clipPath>
</defs>
</svg>
