<svg width="24" height="26" viewBox="0 0 24 26" fill="none" xmlns="http://www.w3.org/2000/svg">
<path d="M0.0327015 9.69288C0.197924 5.34035 3.15805 1.69449 7.19272 0.454658V7.66294C5.52222 8.07587 4.28291 9.56423 4.28291 11.3421C4.28291 13.439 6.00452 15.139 8.12798 15.139C8.30902 15.139 8.48601 15.1222 8.66019 15.0985C8.76413 15.3972 8.8924 15.701 9.05637 16.0049C9.57923 16.973 10.4512 17.9227 11.7701 18.5135C12.3454 18.7717 13.0103 18.952 13.7519 19.0518C13.9472 19.4671 14.3702 19.757 14.8646 19.757H16.529C17.2077 19.757 17.7578 19.2138 17.7578 18.5439C17.7578 17.8729 17.2077 17.3298 16.529 17.3298H14.8646C14.455 17.3298 14.0949 17.5294 13.8717 17.8337C12.7821 17.6813 11.9739 17.3109 11.3613 16.8432C10.5856 16.2486 10.1139 15.4746 9.85079 14.7334C11.108 14.1088 11.9731 12.8269 11.9731 11.3421C11.9731 9.6384 10.8365 8.1965 9.27116 7.71584V0.0448923C9.58573 0.0160683 9.90436 0 10.2267 0C15.862 0 20.43 4.51049 20.4313 10.0754C21.1916 11.5208 23.0151 15.1919 23.0151 15.1919C23.1552 15.4685 23.1604 15.7928 23.0293 16.0739C22.8982 16.3549 22.6453 16.5613 22.3417 16.6367L20.674 17.0487C20.674 17.0487 19.8248 20.8361 19.6308 21.7152C19.3377 23.0461 18.9017 23.3343 17.627 23.3343C16.3512 23.3343 14.8431 22.9266 14.8431 22.9266V25.3137H3.91026V21.5352C3.91026 20.1674 3.52865 18.4513 2.45215 17.1682C0.287243 14.5882 -0.133722 11.8279 0.0327015 9.69288Z" fill="white"/>
</svg>
